<svg xmlns="http://www.w3.org/2000/svg" xmlns:xlink="http://www.w3.org/1999/xlink" version="1.1" width="144" height="144" viewBox="0 0 144 144" xml:space="preserve">
<desc>Created with Fabric.js 3.5.0</desc>
<defs>
</defs>
<rect x="0" y="0" width="100%" height="100%" fill="#d6d6d6"></rect>
<g transform="matrix(0.234 0 0 0.234 72.0167 93.3)" id="547852"  >
<g style="" vector-effect="non-scaling-stroke"   >
		<g transform="matrix(1 0 0 1 -450 -450)"  >
<rect style="stroke: none; stroke-width: 1; stroke-dasharray: none; stroke-linecap: butt; stroke-dashoffset: 0; stroke-linejoin: miter; stroke-miterlimit: 4; is-custom-font: none; font-file-url: none; fill: rgb(255,255,255); fill-rule: nonzero; opacity: 1;"  x="-50" y="-50" rx="0" ry="0" width="100" height="100" />
</g>
		<g transform="matrix(7.2727 0 0 7.2727 -0.0014 -90.914)" id="346174"  >
<path style="stroke: none; stroke-width: 1; stroke-dasharray: none; stroke-linecap: butt; stroke-dashoffset: 0; stroke-linejoin: miter; stroke-miterlimit: 4; is-custom-font: none; font-file-url: none; fill: rgb(0,0,0); fill-rule: nonzero; opacity: 1;" vector-effect="non-scaling-stroke"  transform=" translate(-50, -49.9995)" d="M 87.655 46.812 l -8.104 -7.126 c 1.856 -3.468 5.897 -11.929 4.358 -17.309 c -0.511 -1.786 -1.606 -3.163 -3.168 -3.981 c -1.219 -0.639 -2.522 -0.963 -3.872 -0.963 c -5.317 0 -9.852 4.96 -11.771 7.416 C 62.571 24.03 57.037 22.554 50 22.554 c -7.035 0 -12.569 1.476 -15.097 2.294 c -1.919 -2.456 -6.455 -7.416 -11.771 -7.416 c -1.35 0 -2.652 0.324 -3.872 0.963 c -1.562 0.818 -2.657 2.195 -3.168 3.981 c -1.539 5.38 2.501 13.84 4.358 17.309 l -8.105 7.127 c -0.486 0.428 -0.735 1.064 -0.668 1.709 s 0.442 1.216 1.006 1.535 c 8.509 4.801 14.74 12.421 20.238 19.144 C 39.028 76.669 43.852 82.567 50 82.567 S 60.972 76.669 67.079 69.2 c 5.498 -6.723 11.729 -14.343 20.238 -19.144 c 0.564 -0.318 0.939 -0.89 1.006 -1.535 C 88.39 47.877 88.141 47.24 87.655 46.812 z M 77.847 51.853 c -0.241 -0.257 -0.524 -0.481 -0.86 -0.646 L 71.075 48.3 c -0.35 -2.621 -2.569 -4.649 -5.286 -4.649 c -0.978 0 -1.882 0.281 -2.67 0.739 l -3.545 -1.743 c -1.487 -0.729 -3.286 -0.119 -4.016 1.369 c -0.731 1.487 -0.118 3.285 1.369 4.016 l 3.586 1.763 c 0.383 2.583 2.587 4.57 5.276 4.57 c 0.948 0 1.826 -0.268 2.599 -0.699 l 4.899 2.408 c -3.517 3.546 -6.585 7.271 -9.305 10.596 C 58.761 73.054 54.251 78.567 50 78.567 s -8.761 -5.514 -13.982 -11.898 c -2.719 -3.325 -5.788 -7.05 -9.305 -10.596 l 4.9 -2.408 c 0.773 0.432 1.651 0.699 2.599 0.699 c 2.69 0 4.894 -1.987 5.276 -4.571 l 3.585 -1.762 c 1.487 -0.731 2.1 -2.529 1.369 -4.016 c -0.732 -1.487 -2.529 -2.1 -4.016 -1.369 l -3.545 1.743 c -0.789 -0.458 -1.692 -0.739 -2.67 -0.739 c -2.716 0 -4.937 2.029 -5.286 4.649 l -5.912 2.906 c -0.335 0.165 -0.619 0.39 -0.86 0.647 c -1.619 -1.361 -3.315 -2.661 -5.122 -3.835 l 7.273 -6.395 c 0.72 -0.633 0.889 -1.688 0.404 -2.515 c -2.402 -4.092 -5.821 -11.955 -4.769 -15.632 c 0.211 -0.739 0.586 -1.228 1.179 -1.539 c 0.65 -0.341 1.309 -0.506 2.015 -0.506 c 3.856 0 8.078 4.991 9.378 6.912 c 0.527 0.783 1.533 1.09 2.409 0.737 c 0.063 -0.025 6.379 -2.528 15.081 -2.528 c 8.704 0 15.02 2.503 15.08 2.527 c 0.877 0.357 1.883 0.049 2.412 -0.736 c 1.294 -1.922 5.501 -6.912 9.378 -6.912 c 0.706 0 1.365 0.166 2.015 0.506 c 0.593 0.311 0.967 0.799 1.178 1.537 c 1.051 3.668 -2.368 11.537 -4.77 15.634 c -0.484 0.827 -0.315 1.881 0.404 2.514 l 7.272 6.395 C 81.163 49.192 79.467 50.492 77.847 51.853 z M 42.728 65.625 l 14.545 0.001 c 0.202 0 0.385 0.122 0.462 0.309 c 0.078 0.187 0.035 0.402 -0.108 0.545 l -7.272 7.271 c -0.098 0.098 -0.226 0.146 -0.354 0.146 s -0.256 -0.049 -0.354 -0.146 l -7.273 -7.272 c -0.143 -0.143 -0.186 -0.358 -0.108 -0.545 C 42.343 65.747 42.525 65.625 42.728 65.625 z" stroke-linecap="round" />
</g>
		<g transform="matrix(7.2727 0 0 7.2727 80.1438 359.0313)" style="" id="346174"  >
		<text xml:space="preserve" font-family="'Helvetica Neue', Helvetica, Arial-Unicode, Arial, Sans-serif" font-size="5" font-style="normal" font-weight="bold" style="stroke: none; stroke-width: 1; stroke-dasharray: none; stroke-linecap: butt; stroke-dashoffset: 0; stroke-linejoin: miter; stroke-miterlimit: 4; is-custom-font: none; font-file-url: none; fill: rgb(0,0,0); fill-rule: nonzero; opacity: 1; white-space: pre;" ><tspan x="-30.51" y="1.5707" >Created by Richard Nixon</tspan></text>
</g>
		<g transform="matrix(7.2727 0 0 7.2727 19.5986 395.3948)" style="" id="346174"  >
		<text xml:space="preserve" font-family="'Helvetica Neue', Helvetica, Arial-Unicode, Arial, Sans-serif" font-size="5" font-style="normal" font-weight="bold" style="stroke: none; stroke-width: 1; stroke-dasharray: none; stroke-linecap: butt; stroke-dashoffset: 0; stroke-linejoin: miter; stroke-miterlimit: 4; is-custom-font: none; font-file-url: none; fill: rgb(0,0,0); fill-rule: nonzero; opacity: 1; white-space: pre;" ><tspan x="-26.3475" y="1.5707" >from the Noun Project</tspan></text>
</g>
		<g transform="matrix(5.8745 0 0 2.6483 -165.7948 352.0542)" id="127684"  >
<path style="stroke: none; stroke-width: 1; stroke-dasharray: none; stroke-linecap: butt; stroke-dashoffset: 0; stroke-linejoin: miter; stroke-miterlimit: 4; is-custom-font: none; font-file-url: none; fill: rgb(255,255,255); fill-rule: nonzero; opacity: 1;" vector-effect="non-scaling-stroke"  transform=" translate(-53.5667, -49.0571)" d="M 83.0488 6.9532 C 91.3613 12.8282 96.9863 22.3907 101.424 32.3907 C 105.861 42.3907 109.111 52.8907 105.736 61.0157 C 102.424 69.1407 92.5488 74.9532 84.9863 81.5782 C 77.4238 88.2657 72.1738 95.8282 65.3613 97.6407 C 58.5488 99.4532 50.1738 95.5782 40.1113 94.1407 C 30.0488 92.7657 18.2988 93.7657 10.3613 89.0157 C 2.36126 84.2657 -1.70124 73.7032 0.673762 64.6407 C 3.11126 55.5782 12.0488 47.9532 17.4863 39.7657 C 22.8613 31.5782 24.7363 22.8907 29.9863 15.5782 C 35.2988 8.2657 43.9863 2.39071 53.8613 0.578206 C 63.6738 -1.17179 74.7363 1.0782 83.0488 6.9532 Z" stroke-linecap="round" />
</g>
</g>
</g>
</svg>